<?xml version="1.0" standalone="no"?>
<!DOCTYPE svg PUBLIC "-//W3C//DTD SVG 20010904//EN"
 "http://www.w3.org/TR/2001/REC-SVG-20010904/DTD/svg10.dtd">
<svg version="1.0" xmlns="http://www.w3.org/2000/svg"
 width="95.000000pt" height="95.000000pt" viewBox="0 0 95.000000 95.000000"
 preserveAspectRatio="xMidYMid meet">
<metadata>
Created by potrace 1.14, written by Peter Selinger 2001-2017
</metadata>
<g transform="translate(0.000000,95.000000) scale(0.100000,-0.100000)"
fill="#000000" stroke="none">
<path d="M437 913 c-14 -16 -14 -20 2 -40 18 -21 18 -21 35 -2 15 18 15 21 -2
39 -18 19 -19 19 -35 3z"/>
<path d="M155 894 c-14 -15 -26 -34 -26 -43 -2 -28 3 -56 12 -67 5 -6 5 -15 1
-19 -4 -5 -2 -5 4 -2 7 4 17 1 23 -7 8 -9 26 -13 51 -11 28 2 38 0 34 -8 -3
-7 6 2 20 18 37 41 45 65 35 100 -19 67 -107 89 -154 39z"/>
<path d="M646 902 c-3 -6 -1 -14 5 -17 15 -10 25 3 12 16 -7 7 -13 7 -17 1z"/>
<path d="M670 803 c-25 -8 -50 -20 -57 -25 -7 -6 -30 -7 -55 -2 -98 18 -184 6
-244 -33 -11 -7 -22 -12 -25 -11 -2 2 -4 2 -3 0 1 -1 -15 -19 -34 -40 -65 -68
-93 -180 -66 -260 9 -28 7 -40 -15 -84 -27 -55 -32 -125 -9 -139 18 -12 85
-11 107 1 10 5 21 16 24 24 5 12 0 13 -26 5 -18 -5 -44 -9 -59 -9 -24 0 -28 4
-28 30 0 35 20 81 31 74 5 -3 6 2 3 10 -11 28 11 17 30 -15 10 -17 29 -35 42
-41 13 -6 24 -15 24 -19 0 -5 18 -14 40 -20 21 -7 38 -15 36 -18 -4 -6 71 -6
134 0 19 2 41 0 48 -4 8 -6 10 -3 6 8 -4 9 -3 15 2 13 16 -5 103 45 97 55 -4
7 1 8 13 3 10 -4 15 -4 12 0 -9 9 15 33 26 26 5 -3 6 0 2 6 -3 6 3 28 15 48
26 48 35 129 20 188 -11 45 -3 78 22 97 5 3 8 9 8 13 -1 3 -1 7 0 9 6 19 9 66
5 83 -10 38 -62 49 -126 27z m90 -28 c17 -11 -10 -115 -30 -115 -3 0 -23 18
-44 40 -21 22 -42 40 -47 40 -5 0 -9 5 -9 11 0 5 5 7 10 4 6 -3 10 -2 10 3 0
21 83 33 110 17z"/>
<path d="M56 653 c-11 -11 -6 -23 9 -23 8 0 15 4 15 9 0 13 -16 22 -24 14z"/>
<path d="M838 646 c-16 -12 -16 -15 8 -37 18 -17 23 -19 19 -6 -5 11 -1 19 9
23 13 5 13 8 1 20 -16 17 -16 17 -37 0z"/>
<path d="M53 499 c-18 -18 13 -45 32 -29 12 10 13 16 4 26 -14 17 -22 17 -36
3z"/>
<path d="M886 503 c-11 -11 -6 -23 9 -23 8 0 15 4 15 9 0 13 -16 22 -24 14z"/>
<path d="M772 318 c6 -18 28 -21 28 -4 0 9 -7 16 -16 16 -9 0 -14 -5 -12 -12z"/>
<path d="M625 187 c-12 -14 -14 -22 -7 -25 7 -2 12 -10 12 -18 0 -20 13 -17
33 6 16 19 16 21 -2 39 -18 18 -19 18 -36 -2z"/>
<path d="M367 134 c-8 -8 1 -24 14 -24 5 0 9 7 9 15 0 15 -12 20 -23 9z"/>
</g>
</svg>
